<svg width="39" height="39" viewBox="0 0 39 39" fill="none" xmlns="http://www.w3.org/2000/svg">
<rect x="1.67108" y="0.75" width="35.9702" height="37.4082" rx="17.9851" stroke="black" stroke-width="1.5"/>
<path fill-rule="evenodd" clip-rule="evenodd" d="M16.2935 25.9388H13.4112V16.96H16.2935V25.9388Z" fill="#060505"/>
<path fill-rule="evenodd" clip-rule="evenodd" d="M14.8438 14.9647H14.8274C13.9673 14.9647 13.4112 14.2993 13.4112 13.4677C13.4112 12.6185 13.9842 11.9717 14.8607 11.9717C15.7371 11.9717 16.2769 12.6185 16.2935 13.4677C16.2935 14.2993 15.7371 14.9647 14.8438 14.9647Z" fill="#060505"/>
<path fill-rule="evenodd" clip-rule="evenodd" d="M26.8619 25.9386H24.0296V21.2452C24.0296 20.0663 23.6198 19.2619 22.5944 19.2619C21.8119 19.2619 21.3458 19.8042 21.1411 20.328C21.0662 20.5157 21.0478 20.7773 21.0478 21.0394V25.9388H18.2151C18.2151 25.9388 18.2524 17.9894 18.2151 17.1662H21.0478V18.4088C21.4238 17.8114 22.0971 16.96 23.6009 16.96C25.4647 16.96 26.862 18.2141 26.862 20.9086L26.8619 25.9386Z" fill="#060505"/>
</svg>
