<svg width="39" height="39" viewBox="0 0 39 39" fill="none" xmlns="http://www.w3.org/2000/svg">
<rect x="1.59216" y="0.75" width="35.9703" height="37.4082" rx="17.9851" stroke="black" stroke-width="1.5"/>
<path fill-rule="evenodd" clip-rule="evenodd" d="M19.3969 16.8865L19.4239 17.3611L18.9727 17.303C17.3302 17.0802 15.8953 16.3246 14.6769 15.0556L14.0813 14.426L13.9279 14.8909C13.603 15.9275 13.8105 17.0221 14.4874 17.7583C14.8484 18.1652 14.7672 18.2233 14.1444 17.9811C13.9279 17.9036 13.7383 17.8455 13.7203 17.8746C13.6571 17.9424 13.8737 18.8239 14.0452 19.1726C14.2798 19.657 14.7581 20.1317 15.2816 20.4126L15.7238 20.6354L15.2003 20.6451C14.695 20.6451 14.6769 20.6548 14.7311 20.8582C14.9116 21.4878 15.6245 22.1563 16.4187 22.4469L16.9782 22.6503L16.4909 22.9603C15.7689 23.4059 14.9206 23.6578 14.0722 23.6771C13.6661 23.6868 13.3322 23.7256 13.3322 23.7546C13.3322 23.8515 14.4332 24.394 15.074 24.6071C16.9963 25.2367 19.2796 24.9655 20.9943 23.8902C22.2126 23.125 23.431 21.6041 23.9995 20.1317C24.3064 19.347 24.6132 17.9133 24.6132 17.2255C24.6132 16.7799 24.6403 16.7218 25.1457 16.189C25.4435 15.879 25.7233 15.54 25.7774 15.4431C25.8677 15.2591 25.8586 15.2591 25.3984 15.4237C24.6313 15.7143 24.523 15.6756 24.902 15.2397C25.1818 14.9297 25.5157 14.3678 25.5157 14.2032C25.5157 14.1741 25.3803 14.2225 25.2269 14.3097C25.0644 14.4066 24.7035 14.5519 24.4327 14.6391L23.9454 14.8038L23.5032 14.4841C23.2595 14.3097 22.9165 14.116 22.736 14.0579C22.2758 13.9222 21.5718 13.9416 21.1567 14.0966C20.0286 14.5325 19.3157 15.6562 19.3969 16.8865Z" fill="black"/>
</svg>
